<svg xmlns="http://www.w3.org/2000/svg" version="1.1" xmlns:xlink="http://www.w3.org/1999/xlink" width="1000" height="1000"><metadata><rdf:RDF xmlns:rdf="http://www.w3.org/1999/02/22-rdf-syntax-ns#" xmlns:dc="http://purl.org/dc/elements/1.1/"><rdf:Description><dc:creator>RealFaviconGenerator</dc:creator><dc:source>https://realfavicongenerator.net</dc:source></rdf:Description></rdf:RDF></metadata><g clip-path="url(#SvgjsClipPath1264)"><rect width="1000" height="1000" fill="#ffffff"></rect><g transform="matrix(31.25,0,0,31.25,0,0)"><svg xmlns="http://www.w3.org/2000/svg" viewBox="0 0 32 32" width="32" height="32"><defs>
    <filter id="glow" x="-50%" y="-50%" width="200%" height="200%">
      <feGaussianBlur stdDeviation="1.2" result="blur"></feGaussianBlur>
      <feMerge>
        <feMergeNode in="blur"></feMergeNode>
        <feMergeNode in="SourceGraphic"></feMergeNode>
      </feMerge>
    </filter>
    <radialGradient id="bg" cx="50%" cy="50%" r="50%">
      <stop offset="0%" stop-color="#0f1e35"></stop>
      <stop offset="100%" stop-color="#080d1a"></stop>
    </radialGradient>
  <clipPath id="SvgjsClipPath1264"><rect width="1000" height="1000" x="0" y="0" rx="500" ry="500"></rect></clipPath></defs><rect width="32" height="32" rx="7" fill="url(#bg)"></rect><circle cx="16" cy="16" r="14.2" fill="none" stroke="#00d4aa" stroke-width="1.1" opacity="0.85"></circle><circle cx="16" cy="16" r="12" fill="none" stroke="#00d4aa" stroke-width="0.45" opacity="0.4"></circle><circle cx="16" cy="16" r="7.5" fill="none" stroke="#00d4aa" stroke-width="0.4" opacity="0.22"></circle><line x1="16" y1="1.8" x2="16" y2="4.5" stroke="#00d4aa" stroke-width="1.4" stroke-linecap="round"></line><line x1="16" y1="30.2" x2="16" y2="27.5" stroke="#00d4aa" stroke-width="1.4" stroke-linecap="round"></line><line x1="30.2" y1="16" x2="27.5" y2="16" stroke="#00d4aa" stroke-width="1.4" stroke-linecap="round"></line><line x1="1.8" y1="16" x2="4.5" y2="16" stroke="#00d4aa" stroke-width="1.4" stroke-linecap="round"></line><line x1="26.0" y1="6.0" x2="24.8" y2="7.2" stroke="#00d4aa" stroke-width="0.8" stroke-linecap="round" opacity="0.55"></line><line x1="26.0" y1="26.0" x2="24.8" y2="24.8" stroke="#00d4aa" stroke-width="0.8" stroke-linecap="round" opacity="0.55"></line><line x1="6.0" y1="26.0" x2="7.2" y2="24.8" stroke="#00d4aa" stroke-width="0.8" stroke-linecap="round" opacity="0.55"></line><line x1="6.0" y1="6.0" x2="7.2" y2="7.2" stroke="#00d4aa" stroke-width="0.8" stroke-linecap="round" opacity="0.55"></line><polygon points="16,6.5 14.2,16 16,14.6 17.8,16" fill="#00d4aa" filter="url(#glow)"></polygon><polygon points="16,25.5 14.2,16 16,17.4 17.8,16" fill="#00d4aa" opacity="0.18"></polygon><circle cx="16" cy="16" r="2.4" fill="#080d1a" stroke="#00d4aa" stroke-width="0.9"></circle><circle cx="16" cy="16" r="0.85" fill="#00d4aa"></circle><circle cx="16" cy="3.2" r="1.1" fill="#00d4aa" filter="url(#glow)"></circle></svg></g></g></svg>